<?xml version="1.0" standalone="no"?>
<!DOCTYPE svg PUBLIC "-//W3C//DTD SVG 20010904//EN"
 "http://www.w3.org/TR/2001/REC-SVG-20010904/DTD/svg10.dtd">
<svg version="1.0" xmlns="http://www.w3.org/2000/svg"
 width="2224.000000pt" height="2048.000000pt" viewBox="0 0 2224.000000 2048.000000"
 preserveAspectRatio="xMidYMid meet">

<g transform="translate(0.000000,2048.000000) scale(0.100000,-0.100000)"
fill="#000000" stroke="none">
<path d="M10998 20359 c-379 -382 -677 -789 -809 -1103 -110 -265 -122 -483
-33 -657 51 -101 180 -212 312 -269 l52 -22 0 -579 0 -578 -32 5 c-338 59
-691 145 -1054 258 -217 68 -303 97 -869 290 -924 317 -1360 419 -1855 433
-580 16 -1066 -122 -1540 -440 -239 -160 -398 -299 -711 -621 -266 -273 -437
-395 -569 -404 -55 -4 -59 -3 -99 34 -23 20 -54 58 -68 83 -36 63 -62 91 -100
107 -123 53 -262 -55 -238 -185 11 -57 81 -182 138 -246 56 -63 150 -130 198
-140 17 -4 28 -12 26 -18 -2 -7 -208 -550 -457 -1207 l-452 -1195 28 -20 c15
-11 75 -55 132 -98 57 -43 106 -77 108 -75 2 2 190 499 419 1103 229 605 420
1106 424 1113 6 11 11 7 19 -14 59 -164 1064 -2810 1069 -2814 3 -3 8 1 10 7
9 26 107 170 159 234 l53 67 -549 1448 c-301 797 -551 1457 -555 1466 -5 13
10 25 79 57 172 82 312 188 617 463 203 184 347 298 491 387 565 353 1110 424
1825 240 317 -81 628 -197 1513 -564 739 -306 1290 -487 1783 -585 l57 -11 0
-4723 0 -4723 -49 -7 c-106 -14 -250 -112 -313 -211 -38 -61 -67 -148 -74
-223 -21 -219 126 -433 341 -497 l40 -12 0 -649 c0 -693 -3 -748 -56 -1019
-138 -702 -467 -1333 -1004 -1925 -367 -406 -882 -798 -1361 -1038 -383 -192
-711 -292 -1026 -312 -184 -11 -247 -31 -345 -108 -58 -46 -111 -122 -143
-207 -34 -87 -34 -233 -1 -328 46 -135 161 -248 296 -292 59 -20 119 -20 4300
-20 4112 0 4242 1 4295 19 125 42 237 146 285 262 40 98 47 249 15 344 -27 82
-68 146 -129 203 -94 88 -192 121 -396 131 -182 9 -392 58 -640 150 -129 48
-489 225 -630 311 -1047 634 -1802 1607 -2050 2640 -86 358 -95 469 -95 1221
l0 622 34 6 c92 17 224 116 283 212 63 104 82 270 45 391 -50 159 -179 280
-343 322 l-74 19 0 4718 0 4719 60 13 c604 135 1034 278 1835 609 843 350
1140 460 1460 542 629 162 1115 127 1601 -116 261 -130 453 -270 770 -560 238
-218 395 -334 560 -413 l86 -41 -444 -1171 c-244 -645 -441 -1178 -439 -1185
8 -20 -65 20 -171 93 l-92 64 26 -73 c68 -190 184 -379 313 -508 96 -96 175
-152 257 -181 94 -33 129 -11 198 124 50 97 123 204 172 250 15 15 46 34 67
43 36 15 42 15 82 0 59 -23 124 -98 214 -248 40 -67 78 -125 84 -129 39 -26
86 26 216 234 144 231 212 297 276 266 16 -7 55 -52 91 -103 134 -195 235
-275 326 -261 61 10 139 68 213 160 51 64 254 355 288 413 4 7 -26 -12 -66
-42 -84 -63 -239 -145 -282 -148 l-28 -2 -449 1185 c-247 652 -449 1187 -449
1190 0 3 32 20 71 38 98 46 182 132 243 250 38 75 46 99 46 145 0 93 -60 157
-153 165 -81 7 -126 -20 -176 -107 -43 -73 -87 -117 -127 -127 -71 -18 -194
34 -337 142 -48 36 -215 193 -370 348 -304 304 -408 393 -631 541 -286 189
-571 311 -891 380 -199 42 -286 50 -570 49 -294 0 -396 -10 -670 -65 -367 -73
-564 -132 -1415 -419 -644 -218 -922 -305 -1163 -366 -313 -79 -626 -138 -633
-120 -2 6 -3 265 -2 575 l3 564 81 41 c146 75 232 154 289 266 73 143 72 333
-1 552 -107 323 -443 796 -852 1202 l-120 119 -124 -124z m7687 -5449 c207
-547 378 -997 381 -1001 11 -18 -122 37 -246 101 -329 172 -381 195 -440 194
-85 0 -200 -45 -475 -183 -243 -122 -251 -126 -324 -130 -40 -2 -71 1 -68 5 3
5 174 455 380 999 206 545 380 1004 387 1020 11 27 13 28 20 10 4 -11 177
-468 385 -1015z"/>
<path d="M16068 10982 c-499 -1318 -906 -2398 -904 -2399 5 -6 140 112 212
185 97 98 157 179 202 269 l36 72 29 -25 c16 -13 32 -24 35 -24 8 0 424 1099
486 1285 42 127 85 237 161 420 107 254 522 1370 512 1374 -74 23 -116 76 -98
124 12 32 84 93 162 140 l64 37 113 303 114 302 -76 112 c-41 62 -87 135 -100
162 -14 27 -29 52 -33 54 -5 3 -416 -1073 -915 -2391z"/>
<path d="M19604 13158 c-27 -40 -75 -105 -106 -145 -32 -40 -58 -78 -58 -85 0
-6 27 -84 61 -173 l61 -162 46 9 c26 4 87 20 136 34 72 21 93 24 113 15 14 -7
26 -10 28 -9 3 5 -220 588 -226 588 -3 0 -28 -33 -55 -72z"/>
<path d="M18806 12671 l-28 -19 53 -11 c30 -7 64 -14 76 -18 19 -4 22 -2 17
13 -20 55 -66 69 -118 35z"/>
<path d="M17838 12650 c-36 -11 -98 -49 -98 -60 0 -5 15 -11 33 -14 17 -2 86
-11 152 -20 66 -9 180 -31 253 -49 l132 -34 36 43 35 43 -113 36 c-62 19 -144
42 -183 50 -75 16 -203 18 -247 5z"/>
<path d="M4771 12618 c-171 -65 -1261 -902 -1801 -1382 -453 -403 -987 -937
-1219 -1218 -35 -43 -65 -78 -67 -78 -2 0 3 18 11 40 14 38 13 40 -8 44 -28 6
-301 33 -305 31 -1 -1 -103 -267 -226 -591 -177 -467 -240 -621 -304 -744
-156 -300 -288 -650 -351 -931 -16 -75 -53 -198 -82 -273 l-52 -136 -185 0
-185 0 7 -112 c41 -676 499 -1153 1383 -1442 619 -201 1348 -298 2368 -313
1727 -25 2953 225 3600 732 44 35 119 103 167 152 240 244 360 520 384 876 l7
107 -186 0 c-167 0 -186 2 -192 18 -4 9 -414 1092 -911 2406 -498 1314 -909
2397 -914 2407 -6 11 -31 21 -73 28 -35 6 -118 26 -186 44 -100 28 -121 31
-116 18 4 -9 128 -338 277 -731 216 -572 278 -725 308 -765 49 -65 101 -147
134 -213 48 -94 48 -98 19 -132 -23 -28 -25 -35 -16 -63 8 -25 1081 -2860
1132 -2989 l11 -28 -3128 0 -3127 0 58 24 c74 31 136 73 157 108 9 15 29 86
44 159 125 606 442 1286 909 1952 306 437 635 829 996 1186 113 112 206 207
206 212 0 11 267 263 480 454 292 261 591 508 925 765 152 117 225 182 246
222 33 64 5 133 -66 162 -51 20 -63 20 -129 -6z"/>
<path d="M19909 12512 c-6 -17 -21 -37 -33 -46 -25 -16 -182 -66 -208 -66 -9
0 -19 -4 -22 -8 -3 -5 55 -166 128 -358 129 -340 134 -352 205 -449 248 -341
480 -801 626 -1240 64 -192 138 -470 151 -564 4 -28 10 -54 15 -57 11 -7 89
34 89 47 0 6 4 8 9 4 12 -7 81 33 81 47 0 11 -1019 2710 -1026 2717 -2 2 -9
-10 -15 -27z"/>
<path d="M18577 12433 c-26 -35 -27 -39 -11 -50 36 -27 165 -73 202 -73 42 0
95 29 119 66 14 22 18 21 -272 91 -5 2 -23 -14 -38 -34z"/>
<path d="M17719 12362 c16 -30 70 -73 121 -96 67 -30 197 -29 265 2 40 19 47
25 34 32 -20 11 -290 66 -372 75 -56 6 -58 6 -48 -13z"/>
<path d="M19090 12311 c0 -6 -27 -39 -60 -74 -84 -91 -155 -122 -270 -121 -78
0 -96 5 -218 52 l-133 52 -48 -49 c-212 -218 -513 -225 -726 -17 l-60 58 -44
-48 c-222 -245 -321 -408 -324 -534 -1 -39 4 -65 19 -90 41 -71 76 -50 200
115 90 121 140 171 179 181 42 10 83 -15 125 -75 70 -104 92 -109 162 -43 63
59 87 72 128 72 39 0 79 -20 150 -76 109 -85 134 -70 155 90 7 59 19 114 26
122 24 30 59 16 121 -48 81 -85 161 -208 256 -394 44 -88 94 -177 110 -200 33
-45 84 -74 129 -74 86 0 85 95 -7 439 -33 126 -39 201 -15 221 13 11 33 4 123
-42 137 -71 199 -91 288 -92 81 -1 121 18 138 67 19 52 -15 104 -205 314 -99
109 -184 200 -189 201 -6 2 -10 -1 -10 -7z"/>
<path d="M1918 11475 l-146 -385 50 -97 c55 -110 87 -241 88 -358 0 -45 4 -65
9 -55 5 8 102 260 215 560 182 481 205 546 190 555 -9 6 -70 45 -136 88 -65
42 -120 77 -122 77 -1 0 -68 -173 -148 -385z"/>
<path d="M18481 11016 c-14 -8 -28 -22 -32 -32 -4 -11 -8 -91 -8 -179 l-1
-160 -134 0 -135 0 -6 35 c-16 94 -59 221 -77 231 -33 18 -89 7 -111 -22 l-19
-27 31 -125 c17 -69 31 -128 31 -131 0 -3 -31 -21 -70 -42 -175 -92 -248 -222
-206 -367 12 -42 30 -71 72 -116 59 -64 113 -95 209 -122 l60 -16 6 -59 c9
-75 11 -354 3 -354 -12 0 -94 62 -157 119 -78 70 -104 76 -148 32 -48 -48 -41
-77 39 -153 69 -66 155 -129 230 -167 40 -21 42 -23 42 -68 0 -26 5 -110 12
-187 11 -133 13 -143 39 -168 33 -33 76 -37 110 -9 l23 18 -14 172 c-7 94 -11
173 -9 174 2 1 49 0 104 -3 l100 -5 3 -45 c1 -25 9 -105 17 -179 17 -155 30
-181 95 -181 l37 0 8 103 c4 56 11 104 16 107 4 3 4 45 -1 95 -14 131 -14 134
15 141 14 3 22 10 19 15 -3 5 5 9 17 9 37 0 138 61 209 127 50 46 79 83 102
131 30 61 33 74 33 162 0 120 -24 179 -100 248 -63 57 -134 87 -250 104 l-85
12 0 148 c0 112 3 148 13 148 6 0 50 -21 96 -45 45 -25 96 -45 111 -45 37 0
70 41 70 86 0 29 -6 38 -42 60 -37 24 -180 90 -230 107 -16 6 -18 25 -18 201
l0 195 -26 20 c-31 24 -59 26 -93 7z m-103 -522 l62 -7 0 -177 0 -177 -61 -7
c-34 -3 -79 -6 -100 -6 l-38 0 -5 53 c-11 96 -26 272 -26 306 l0 33 53 -6 c28
-3 80 -9 115 -12z m-316 -206 c8 -84 14 -155 11 -157 -2 -3 -29 8 -60 23 -175
86 -183 160 -28 259 22 14 45 26 51 26 6 1 16 -59 26 -151z m392 -400 c3 -50
6 -165 6 -254 l0 -164 -26 -6 c-29 -7 -161 0 -171 10 -3 3 -8 116 -11 250 l-5
245 79 4 c44 1 88 4 100 5 20 2 21 -4 28 -90z m257 77 c157 -54 207 -222 103
-344 -32 -36 -154 -111 -182 -111 -9 0 -23 448 -15 463 7 11 46 8 94 -8z"/>
<path d="M21448 8037 c-76 -23 -138 -47 -138 -52 0 -6 49 -141 110 -300 60
-160 110 -293 110 -297 0 -5 -1458 -8 -3240 -8 -1782 0 -3240 1 -3240 3 0 1
38 101 84 222 46 121 82 222 80 223 -1 2 -72 19 -158 37 l-155 32 -29 -76
c-16 -42 -60 -158 -98 -258 l-69 -183 -182 0 -183 0 0 -77 c0 -366 174 -732
469 -990 412 -361 1079 -600 1996 -718 487 -62 819 -80 1495 -80 663 1 996 19
1480 80 1145 147 1898 484 2246 1006 136 204 214 455 214 691 l0 88 -182 2
-182 3 -130 347 c-94 249 -135 347 -146 347 -8 -1 -77 -20 -152 -42z"/>
</g>
</svg>
