<svg id="svg" version="1.1" xmlns="http://www.w3.org/2000/svg" xmlns:xlink="http://www.w3.org/1999/xlink" width="400" height="400" viewBox="0, 0, 400,400"><g id="svgg"><path id="path0" d="M172.500 67.667 L 161.170 79.000 165.833 83.583 L 170.497 88.167 166.001 83.581 L 161.505 78.996 172.753 67.748 L 184.000 56.501 241.917 114.334 L 299.833 172.167 242.000 114.250 C 210.192 82.396,184.091 56.333,183.999 56.333 C 183.906 56.333,178.731 61.433,172.500 67.667 M167.990 90.583 L 165.833 92.833 168.083 90.676 C 169.321 89.490,170.333 88.477,170.333 88.426 C 170.333 88.181,169.994 88.493,167.990 90.583 M142.995 97.250 C 138.320 101.971,133.299 107.072,131.837 108.585 L 129.179 111.337 133.666 115.833 L 138.153 120.329 135.910 122.590 C 134.676 123.833,133.667 124.996,133.667 125.175 C 133.667 125.354,159.579 151.412,191.250 183.081 L 248.833 240.662 260.253 229.255 L 271.673 217.848 267.170 213.337 L 262.668 208.826 265.082 206.412 L 267.497 203.997 209.832 146.332 C 178.116 114.616,152.016 88.667,151.831 88.667 C 151.646 88.667,147.670 92.529,142.995 97.250 M167.667 94.833 C 168.662 95.842,169.552 96.667,169.644 96.667 C 169.736 96.667,168.996 95.842,168.000 94.833 C 167.004 93.825,166.114 93.000,166.023 93.000 C 165.931 93.000,166.671 93.825,167.667 94.833 M222.333 149.500 C 238.741 165.908,252.240 179.333,252.332 179.333 C 252.424 179.333,239.074 165.908,222.667 149.500 C 206.259 133.092,192.760 119.667,192.668 119.667 C 192.576 119.667,205.926 133.092,222.333 149.500 M104.831 135.417 L 96.500 143.833 104.917 135.503 C 112.738 127.761,113.484 127.000,113.247 127.000 C 113.200 127.000,109.413 130.787,104.831 135.417 M299.329 181.083 C 301.801 183.604,303.864 185.667,303.912 185.667 C 304.151 185.667,303.674 185.171,299.417 180.995 L 294.833 176.500 299.329 181.083 M270.167 197.333 C 276.215 203.383,281.238 208.333,281.330 208.333 C 281.421 208.333,276.548 203.383,270.500 197.333 C 264.452 191.283,259.429 186.333,259.337 186.333 C 259.245 186.333,264.119 191.283,270.167 197.333 M234.329 246.083 C 238.505 250.341,239.000 250.818,239.000 250.579 C 239.000 250.530,236.938 248.468,234.417 245.995 L 229.833 241.500 234.329 246.083 " stroke="none" fill="#5cc4f4" fill-rule="evenodd"></path><path id="path1" d="M103.158 155.417 L 100.833 157.833 103.250 155.509 C 104.579 154.231,105.667 153.143,105.667 153.092 C 105.667 152.848,105.317 153.172,103.158 155.417 M158.500 215.667 C 190.216 247.383,216.241 273.333,216.333 273.333 C 216.424 273.333,190.550 247.383,158.833 215.667 C 127.117 183.950,101.092 158.000,101.001 158.000 C 100.909 158.000,126.784 183.950,158.500 215.667 M106.667 311.667 L 106.667 325.667 113.000 325.667 L 119.333 325.667 119.333 324.167 L 119.333 322.667 115.000 322.667 L 110.667 322.667 110.667 310.167 L 110.667 297.667 108.667 297.667 L 106.667 297.667 106.667 311.667 M191.667 299.167 L 191.667 300.667 194.654 300.667 L 197.642 300.667 197.738 312.363 L 197.833 324.058 198.769 324.863 C 199.649 325.619,199.948 325.667,203.852 325.667 L 208.000 325.667 208.000 324.167 L 208.000 322.667 205.194 322.667 C 203.651 322.667,202.151 322.576,201.861 322.464 C 201.393 322.285,201.333 320.871,201.333 309.964 L 201.333 297.667 196.500 297.667 L 191.667 297.667 191.667 299.167 M214.667 311.667 L 214.667 325.667 221.500 325.667 L 228.333 325.667 228.333 324.167 L 228.333 322.667 223.333 322.667 L 218.333 322.667 218.333 317.667 L 218.333 312.667 222.833 312.667 L 227.333 312.667 227.333 311.167 L 227.333 309.667 222.833 309.667 L 218.333 309.667 218.333 305.167 L 218.333 300.667 223.333 300.667 L 228.333 300.667 228.333 299.167 L 228.333 297.667 221.500 297.667 L 214.667 297.667 214.667 311.667 M130.439 306.314 C 128.139 307.358,127.856 308.244,127.723 314.801 C 127.524 324.639,128.361 325.667,136.581 325.667 L 140.667 325.667 140.667 324.202 L 140.667 322.737 136.702 322.618 C 131.697 322.469,131.333 322.232,131.333 319.115 L 131.333 317.000 136.703 317.000 L 142.072 317.000 141.951 313.250 C 141.815 309.026,141.330 307.753,139.349 306.418 C 137.833 305.396,132.596 305.335,130.439 306.314 M151.328 306.417 C 147.874 308.168,147.203 316.122,150.344 318.084 C 150.909 318.437,151.000 318.869,151.000 321.213 L 151.000 323.933 155.283 324.050 C 160.330 324.188,160.667 324.351,160.667 326.667 C 160.667 329.042,160.414 329.148,154.450 329.280 L 149.333 329.393 149.333 330.885 L 149.333 332.376 155.083 332.271 C 162.989 332.127,164.333 331.313,164.333 326.667 C 164.333 322.602,162.750 321.253,157.750 321.057 C 154.750 320.939,154.667 320.914,154.667 320.134 C 154.667 319.364,154.758 319.333,157.011 319.333 C 162.448 319.333,164.000 317.109,164.000 309.317 L 164.000 305.667 158.404 305.667 C 153.261 305.667,152.688 305.727,151.328 306.417 M171.333 307.132 L 171.333 308.596 175.363 308.715 C 180.072 308.854,180.667 309.208,180.667 311.870 L 180.667 313.333 177.323 313.333 C 171.583 313.333,170.233 314.481,170.068 319.500 C 169.952 322.997,170.538 324.368,172.497 325.187 C 174.060 325.840,180.257 325.849,181.185 325.200 C 181.756 324.800,181.942 324.800,182.489 325.200 C 182.840 325.457,183.849 325.667,184.730 325.667 L 186.333 325.667 186.333 324.199 C 186.333 322.869,186.240 322.699,185.333 322.383 L 184.333 322.035 184.333 316.088 C 184.333 306.754,183.421 305.667,175.596 305.667 L 171.333 305.667 171.333 307.132 M236.333 307.132 L 236.333 308.596 240.363 308.715 C 245.072 308.854,245.667 309.208,245.667 311.870 L 245.667 313.333 242.323 313.333 C 236.583 313.333,235.233 314.481,235.068 319.500 C 234.952 322.997,235.538 324.368,237.497 325.187 C 239.060 325.840,245.257 325.849,246.185 325.200 C 246.756 324.800,246.942 324.800,247.489 325.200 C 247.840 325.457,248.849 325.667,249.730 325.667 L 251.333 325.667 251.333 324.199 C 251.333 322.869,251.240 322.699,250.333 322.383 L 249.333 322.035 249.333 316.088 C 249.333 306.754,248.421 305.667,240.596 305.667 L 236.333 305.667 236.333 307.132 M260.891 306.369 C 259.267 307.226,258.666 308.633,258.668 311.573 C 258.670 315.350,260.282 317.000,263.968 317.000 C 266.911 317.000,267.333 317.331,267.333 319.640 C 267.333 322.417,266.914 322.667,262.259 322.667 L 258.667 322.667 258.667 324.167 L 258.667 325.667 262.917 325.666 C 269.347 325.665,271.000 324.479,270.999 319.867 C 270.999 315.767,269.239 313.667,265.806 313.667 C 262.870 313.667,262.333 313.310,262.333 311.360 C 262.333 309.001,262.921 308.667,267.074 308.667 L 270.333 308.667 270.333 307.167 L 270.333 305.667 266.250 305.681 C 262.816 305.694,261.964 305.803,260.891 306.369 M282.105 306.314 C 279.806 307.358,279.522 308.244,279.390 314.801 C 279.190 324.639,280.028 325.667,288.248 325.667 L 292.333 325.667 292.333 324.202 L 292.333 322.737 288.368 322.618 C 283.363 322.469,283.000 322.232,283.000 319.115 L 283.000 317.000 288.369 317.000 L 293.739 317.000 293.618 313.250 C 293.482 309.026,292.997 307.753,291.016 306.418 C 289.500 305.396,284.262 305.335,282.105 306.314 M137.455 309.358 C 138.227 309.965,138.333 310.287,138.333 312.024 L 138.333 314.000 134.833 314.000 L 131.333 314.000 131.333 312.064 C 131.333 309.254,131.874 308.739,134.872 308.693 C 136.121 308.674,136.812 308.852,137.455 309.358 M160.333 311.318 C 160.333 315.683,159.451 316.568,155.419 316.244 C 152.569 316.015,152.000 315.418,152.000 312.657 C 152.000 309.244,152.741 308.701,157.417 308.680 L 160.333 308.667 160.333 311.318 M289.122 309.358 C 289.894 309.965,290.000 310.287,290.000 312.024 L 290.000 314.000 286.500 314.000 L 283.000 314.000 283.000 312.064 C 283.000 309.254,283.541 308.739,286.538 308.693 C 287.787 308.674,288.478 308.852,289.122 309.358 M180.662 318.917 C 180.655 322.296,180.535 322.449,177.770 322.600 C 174.170 322.796,173.667 322.465,173.667 319.905 C 173.667 316.727,174.073 316.401,178.083 316.360 L 180.667 316.333 180.662 318.917 M245.662 318.917 C 245.655 322.296,245.535 322.449,242.770 322.600 C 239.170 322.796,238.667 322.465,238.667 319.905 C 238.667 316.727,239.073 316.401,243.083 316.360 L 245.667 316.333 245.662 318.917 " stroke="none" fill="#040404" fill-rule="evenodd"></path><path id="path2" d="M172.668 67.832 L 161.506 78.997 165.920 83.420 C 171.090 88.600,170.882 87.931,168.171 90.663 L 166.008 92.842 223.671 150.504 L 281.333 208.166 292.581 196.918 L 303.828 185.671 299.337 181.171 L 294.847 176.671 297.169 174.331 L 299.491 171.991 241.829 114.329 C 210.115 82.615,184.091 56.667,183.998 56.667 C 183.906 56.667,178.807 61.691,172.668 67.832 " stroke="none" fill="#c4ecf4" fill-rule="evenodd"></path><path id="path3" d="M107.835 132.665 L 96.506 143.997 101.086 148.586 L 105.665 153.174 103.334 155.505 L 101.003 157.837 158.680 215.502 L 216.358 273.167 227.556 261.882 L 238.754 250.597 234.301 246.134 L 229.847 241.671 232.090 239.410 C 233.324 238.167,234.333 237.004,234.333 236.825 C 234.333 236.646,208.420 210.587,176.749 178.916 L 119.164 121.332 107.835 132.665 " stroke="none" fill="#1c1cac" fill-rule="evenodd"></path><path id="path4" d="" stroke="none" fill="#78a8b8" fill-rule="evenodd"></path></g></svg>